<?xml version="1.0" encoding="utf-8"?>
<!-- Generator: Adobe Illustrator 16.0.0, SVG Export Plug-In . SVG Version: 6.00 Build 0)  -->
<!DOCTYPE svg PUBLIC "-//W3C//DTD SVG 1.1//EN" "http://www.w3.org/Graphics/SVG/1.1/DTD/svg11.dtd">
<svg version="1.1" id="Layer_1" xmlns="http://www.w3.org/2000/svg" xmlns:xlink="http://www.w3.org/1999/xlink" x="0px" y="0px"
	 width="200px" height="200px" viewBox="0 0 200 200" enable-background="new 0 0 200 200" xml:space="preserve">
<path fill="#231F20" d="M99.974,153.794c-23.204,0-46.415,0-69.622-0.021c-0.812,0-1.387-0.048-1.594,1.176
	c-0.257,1.581-1.683,2.625-3.316,2.65c-3.548,0.057-7.104,0.078-10.652,0c-2.122-0.056-3.453-1.632-3.531-3.951
	c-0.008-0.263-0.008-0.545-0.008-0.833c0-35.222,0-70.438,0-105.65c0-0.262,0-0.494,0-0.726c0.06-2.457,1.374-3.999,3.667-4.046
	c3.479-0.064,6.958-0.057,10.437,0c1.934,0.039,3.051,1.086,3.541,3.148c0.111,0.468,0.265,0.709,0.721,0.666
	c0.258-0.008,0.516-0.004,0.765-0.004c46.38,0,92.761,0,139.132,0.039c0.962,0,1.469-0.154,1.735-1.323
	c0.377-1.645,1.701-2.491,3.514-2.534c1.4-0.035,2.81-0.013,4.218-0.013c1.838,0,3.703-0.013,5.55,0
	c2.86,0.022,4.218,1.491,4.218,4.587c0,15.433,0,30.844,0,46.273c0,19.831,0,39.67,0,59.501c0,3.526-1.254,4.896-4.485,4.901
	c-3.075,0-6.142,0.008-9.217-0.005c-2.285,0-3.393-0.901-4.003-3.294c-0.111-0.478-0.3-0.563-0.669-0.542c-0.301,0-0.593,0-0.894,0
	C146.311,153.794,123.143,153.794,99.974,153.794z M49.247,100.113c0-12.886,0-25.776,0-38.649c0-0.549,0.017-1.104-0.052-1.653
	c-0.283-2.427-2.67-4.149-5.059-3.682c-2.362,0.43-3.686,2.173-3.686,4.892c0,25.996,0,51.989,0,77.988
	c0,0.499,0.052,1.019,0.155,1.504c0.352,1.611,1.356,2.688,2.903,3.188c2.989,1.009,5.721-1.139,5.73-4.511
	C49.247,126.159,49.247,113.14,49.247,100.113z M71.359,100.113c0-12.886,0-25.776,0-38.649c0-0.549,0.017-1.104-0.052-1.653
	c-0.292-2.427-2.671-4.149-5.059-3.682c-2.363,0.43-3.687,2.173-3.687,4.892c0,25.996,0,51.989,0,77.988
	c0,0.499,0.052,1.019,0.155,1.504c0.352,1.611,1.356,2.688,2.903,3.188c2.99,1.009,5.722-1.139,5.73-4.511
	C71.359,126.159,71.359,113.14,71.359,100.113z M93.471,100.113c0-12.886,0-25.776,0-38.649c0-0.549,0.017-1.104-0.051-1.653
	c-0.292-2.427-2.672-4.149-5.06-3.682c-2.363,0.43-3.686,2.173-3.686,4.892c0,25.996,0,51.989,0,77.988
	c0,0.499,0.052,1.019,0.155,1.504c0.353,1.611,1.357,2.688,2.904,3.188c2.99,1.009,5.722-1.139,5.729-4.511
	C93.471,126.159,93.471,113.14,93.471,100.113z M115.583,100.113c0-12.886,0-25.776,0-38.649c0-0.549,0.017-1.104-0.052-1.653
	c-0.283-2.427-2.672-4.149-5.06-3.682c-2.362,0.43-3.685,2.173-3.685,4.892c0,25.996,0,51.989,0,77.988
	c0,0.499,0.051,1.019,0.154,1.504c0.352,1.611,1.358,2.688,2.904,3.188c2.989,1.009,5.721-1.139,5.729-4.511
	C115.583,126.159,115.583,113.14,115.583,100.113z M137.695,100.113c0-12.886,0-25.776,0-38.649c0-0.549,0.017-1.104-0.052-1.653
	c-0.282-2.427-2.671-4.149-5.06-3.682c-2.361,0.43-3.685,2.173-3.685,4.892c0,25.996,0,51.989,0,77.988
	c0,0.499,0.052,1.019,0.155,1.504c0.353,1.611,1.357,2.688,2.904,3.188c2.989,1.009,5.721-1.139,5.729-4.511
	C137.695,126.159,137.695,113.14,137.695,100.113z M159.806,100.113c0-12.886,0-25.776,0-38.649c0-0.549,0.018-1.104-0.051-1.653
	c-0.284-2.427-2.681-4.149-5.06-3.682c-2.362,0.43-3.686,2.173-3.686,4.892c0,25.996,0,51.989,0,77.988
	c0,0.499,0.052,1.019,0.155,1.504c0.352,1.611,1.356,2.688,2.903,3.188c2.989,1.009,5.721-1.139,5.73-4.511
	C159.806,126.159,159.806,113.14,159.806,100.113z"/>
</svg>
