<?xml version="1.0" encoding="utf-8"?>
<!-- Generator: Adobe Illustrator 16.0.0, SVG Export Plug-In . SVG Version: 6.00 Build 0)  -->
<!DOCTYPE svg PUBLIC "-//W3C//DTD SVG 1.1//EN" "http://www.w3.org/Graphics/SVG/1.1/DTD/svg11.dtd">
<svg version="1.1" id="Layer_1" xmlns="http://www.w3.org/2000/svg" xmlns:xlink="http://www.w3.org/1999/xlink" x="0px" y="0px"
	 width="200px" height="200px" viewBox="0 0 200 200" enable-background="new 0 0 200 200" xml:space="preserve">
<path fill="#231F20" d="M187.962,101.243c-6.353-23.666-25.249-40.175-49.722-43.521c-0.408-0.056-0.795-0.289-1.165-0.451
	c-4.02,0-8.033,0-12.038,0c-2.96,0.636-5.95,1.119-8.861,1.906C92.5,65.555,76.008,84.453,72.662,108.923
	c-0.048,0.402-0.297,0.78-0.449,1.175c0,4.004,0,8.018,0,12.029c0.627,2.952,1.117,5.943,1.905,8.854
	c6.368,23.666,25.274,40.168,49.745,43.504c0.402,0.057,0.779,0.307,1.174,0.459c4.005,0,8.019,0,12.038,0
	c2.936-0.627,5.935-1.118,8.846-1.906c23.666-6.368,40.159-25.274,43.505-49.744c0.064-0.402,0.307-0.78,0.459-1.167
	c0-4.012,0-8.025,0-12.029C189.256,107.146,188.759,104.154,187.962,101.243z M121.949,160.229
	c-16.484-2.364-32.053-17.868-35.029-34.804c0.651-0.072,1.279-0.21,1.922-0.21c6.369-0.008,12.723-0.031,19.082,0
	c7.673,0.041,13.97,6.272,14.009,13.921C121.989,146.099,121.949,153.056,121.949,160.229z M130.939,126.921
	c-6.095-0.049-10.791-4.882-10.688-11.05c0.081-5.959,4.882-10.615,10.897-10.566c6.096,0.04,10.808,4.881,10.702,11.041
	C141.755,122.32,136.979,126.969,130.939,126.921z M140.203,160.229c0-7.68-0.232-15.167,0.04-22.629
	c0.234-5.549,6.272-11.901,11.934-12.215c7.616-0.41,15.271-0.098,22.935-0.098C173.423,141.05,156.713,157.824,140.203,160.229z
	 M155.924,105.595c-4.067-1.489-8.009-3.378-12.014-5.026c-8.716-3.571-17.481-3.587-26.11,0.209
	c-7.149,3.168-14.226,6.529-22.113,7.495c-3.008,0.361-6.016,0.643-9.072,0.972c1.286-19.877,21.544-37.826,42.935-38.373
	c22.902-0.579,43.239,16.203,46.045,38.221C168.823,108.955,162.236,107.926,155.924,105.595z M32.345,47.461
	c0-12.931,10.472-23.406,23.404-23.406c12.932,0,23.405,10.475,23.405,23.406c0,12.931-10.474,23.403-23.405,23.403
	C42.816,70.864,32.345,60.392,32.345,47.461z M62.713,109.127c0,2.846,0,5.698,0,8.55H14.791c-3.217,0-5.851-2.629-5.851-5.853
	v-5.852c0-15.565,31.187-23.404,46.809-23.404c4.153,0,9.41,0.56,14.887,1.667c-3.705,7.123-6.24,15.033-7.401,23.528
	C63.179,108.23,62.89,108.669,62.713,109.127z"/>
</svg>
