<?xml version="1.0" encoding="utf-8"?>
<!-- Generator: Adobe Illustrator 16.0.0, SVG Export Plug-In . SVG Version: 6.00 Build 0)  -->
<!DOCTYPE svg PUBLIC "-//W3C//DTD SVG 1.1//EN" "http://www.w3.org/Graphics/SVG/1.1/DTD/svg11.dtd">
<svg version="1.1" id="Layer_1" xmlns="http://www.w3.org/2000/svg" xmlns:xlink="http://www.w3.org/1999/xlink" x="0px" y="0px"
	 width="200px" height="200px" viewBox="0 0 200 200" enable-background="new 0 0 200 200" xml:space="preserve">
<path fill-rule="evenodd" clip-rule="evenodd" fill="#231F20" d="M77.729,115.688c-15.084,0-30.182,0-45.266-0.007
	c-0.529,0-0.901-0.027-1.03,0.766c-0.177,1.023-1.098,1.708-2.162,1.722c-2.311,0.034-4.614,0.048-6.925,0
	c-1.376-0.04-2.243-1.063-2.298-2.575c0-0.162,0-0.353,0-0.542c0-22.897,0-45.795,0-68.686c0-0.176,0-0.326,0-0.475
	c0.041-1.599,0.895-2.602,2.386-2.629c2.263-0.054,4.52-0.041,6.776,0c1.261,0.027,1.992,0.705,2.304,2.047
	c0.074,0.298,0.177,0.46,0.468,0.434c0.169-0.014,0.339-0.014,0.508-0.014c30.155,0,60.311,0,90.452,0.027
	c0.63,0,0.962-0.095,1.138-0.854c0.244-1.071,1.099-1.62,2.277-1.653c0.908-0.021,1.83,0,2.744,0c1.2,0,2.406-0.014,3.612,0
	c1.856,0.013,2.737,0.962,2.737,2.981c0,10.029,0,20.051,0,30.087c0,12.889,0,25.792,0,38.68c0,2.297-0.813,3.185-2.914,3.191
	c-1.999,0-3.998,0.006-5.99-0.007c-1.49,0-2.209-0.583-2.602-2.142c-0.082-0.312-0.203-0.359-0.434-0.353c-0.204,0-0.394,0-0.583,0
	C107.856,115.688,92.8,115.688,77.729,115.688z M44.741,80.79c0-8.375,0-16.765,0-25.127c0-0.359,0.014-0.718-0.027-1.084
	c-0.183-1.572-1.734-2.69-3.293-2.392c-1.531,0.278-2.392,1.416-2.392,3.185c-0.007,16.9,0,33.8,0,50.708
	c0,0.324,0.033,0.664,0.102,0.976c0.23,1.044,0.881,1.748,1.884,2.073c1.951,0.65,3.727-0.738,3.727-2.928
	C44.748,97.718,44.741,89.261,44.741,80.79z M59.121,80.79c0-8.375,0-16.765,0-25.127c0-0.359,0.014-0.718-0.027-1.084
	c-0.189-1.572-1.734-2.69-3.293-2.392c-1.532,0.278-2.399,1.416-2.399,3.185c0,16.9,0,33.8,0,50.708
	c0,0.324,0.041,0.664,0.108,0.976c0.23,1.044,0.881,1.748,1.884,2.073c1.952,0.65,3.728-0.738,3.728-2.928
	C59.121,97.718,59.121,89.261,59.121,80.79z M73.5,80.79c0-8.375,0-16.765,0-25.127c0-0.359,0.014-0.718-0.026-1.084
	c-0.19-1.572-1.742-2.69-3.294-2.392c-1.531,0.278-2.398,1.416-2.398,3.185c0,16.9,0,33.8,0,50.708c0,0.324,0.027,0.664,0.108,0.976
	c0.224,1.044,0.881,1.748,1.884,2.073c1.944,0.65,3.721-0.738,3.721-2.928C73.5,97.718,73.5,89.261,73.5,80.79z M87.88,80.79
	c0-8.375,0-16.765,0-25.127c0-0.359,0.014-0.718-0.034-1.084c-0.183-1.572-1.741-2.69-3.286-2.392
	c-1.531,0.278-2.398,1.416-2.398,3.185c0,16.9,0,33.8,0,50.708c0,0.324,0.026,0.664,0.108,0.976
	c0.217,1.044,0.881,1.748,1.884,2.073c1.938,0.65,3.713-0.738,3.727-2.928C87.88,97.718,87.88,89.261,87.88,80.79z M102.26,80.79
	c0-8.375,0-16.765,0-25.127c0-0.359,0.007-0.718-0.041-1.084c-0.176-1.572-1.734-2.69-3.279-2.392
	c-1.539,0.278-2.399,1.416-2.399,3.185c0,16.9,0,33.8,0,50.708c0,0.324,0.027,0.664,0.102,0.976
	c0.224,1.044,0.888,1.748,1.884,2.073c1.945,0.65,3.721-0.738,3.721-2.928C102.26,97.718,102.26,89.261,102.26,80.79z
	 M116.632,80.79c0-8.375,0-16.765,0-25.127c0-0.359,0.007-0.718-0.033-1.084c-0.177-1.572-1.735-2.69-3.287-2.392
	c-1.538,0.278-2.398,1.416-2.398,3.185c0,16.9,0,33.8,0,50.708c0,0.324,0.034,0.664,0.102,0.976c0.23,1.044,0.881,1.748,1.884,2.073
	c1.952,0.65,3.728-0.738,3.728-2.928C116.639,97.718,116.632,89.261,116.632,80.79z M168.045,84H155v-7h-7v42H10v21h6.077
	c1.402,14,8.186,13.709,16.372,13.709c8.199,0,14.976,0.291,16.385-13.709h90.967c1.593,14,8.498,15.438,16.806,15.438
	c9.5,0,17.158-8.438,17.158-15.438H190v-27.971L168.045,84z M32.449,145.367c-3.551,0-6.566,1.633-7.766-5.367h15.531
	C39.022,147,36.007,145.367,32.449,145.367z M156.606,149.211c-4.743,0-8.579-3.836-8.579-8.586c0-4.742,3.836-8.578,8.579-8.578
	c4.757,0,8.579,3.836,8.579,8.578C165.186,145.375,161.363,149.211,156.606,149.211z M155,105V93.327l11.326-2.268l7.98,13.941H155z
	"/>
</svg>
