<?xml version="1.0" encoding="utf-8"?>
<!-- Generator: Adobe Illustrator 16.0.0, SVG Export Plug-In . SVG Version: 6.00 Build 0)  -->
<!DOCTYPE svg PUBLIC "-//W3C//DTD SVG 1.1//EN" "http://www.w3.org/Graphics/SVG/1.1/DTD/svg11.dtd">
<svg version="1.1" id="Layer_1" xmlns="http://www.w3.org/2000/svg" xmlns:xlink="http://www.w3.org/1999/xlink" x="0px" y="0px"
	 width="200px" height="200px" viewBox="0 0 200 200" enable-background="new 0 0 200 200" xml:space="preserve">
<path fill="#231F20" d="M167.275,66.361h-25.229V32.724H24.315c-9.255,0-16.819,7.567-16.819,16.819v92.504h16.819
	c0,13.966,11.268,25.229,25.229,25.229c13.961,0,25.228-11.263,25.228-25.229h50.457c0,13.966,11.267,25.229,25.228,25.229
	c13.961,0,25.229-11.263,25.229-25.229h16.819V99.999L167.275,66.361z M49.543,154.661c-6.98,0-12.614-5.626-12.614-12.614
	c0-6.977,5.634-12.614,12.614-12.614s12.614,5.638,12.614,12.614C62.158,149.035,56.524,154.661,49.543,154.661z M163.071,78.975
	l16.474,21.024h-37.498V78.975H163.071z M150.457,154.661c-6.98,0-12.614-5.626-12.614-12.614c0-6.977,5.634-12.614,12.614-12.614
	s12.614,5.638,12.614,12.614C163.071,149.035,157.437,154.661,150.457,154.661z"/>
</svg>
