<?xml version="1.0" encoding="utf-8"?>
<!-- Generator: Adobe Illustrator 16.0.0, SVG Export Plug-In . SVG Version: 6.00 Build 0)  -->
<!DOCTYPE svg PUBLIC "-//W3C//DTD SVG 1.1//EN" "http://www.w3.org/Graphics/SVG/1.1/DTD/svg11.dtd">
<svg version="1.1" id="Layer_1" xmlns="http://www.w3.org/2000/svg" xmlns:xlink="http://www.w3.org/1999/xlink" x="0px" y="0px"
	 width="200px" height="200px" viewBox="0 0 200 200" enable-background="new 0 0 200 200" xml:space="preserve">
<path fill="#231F20" d="M175.5,113.251h-62.916v62.918c0,6.921-5.664,12.586-12.582,12.586c-6.913,0-12.583-5.665-12.583-12.586
	v-62.918H24.5c-6.924,0-12.583-5.652-12.583-12.581c0-6.919,5.659-12.585,12.583-12.585h62.919v-62.92
	c0-6.906,5.67-12.577,12.583-12.577c6.918,0,12.582,5.671,12.582,12.577v62.92H175.5c6.923,0,12.583,5.666,12.583,12.585
	C188.083,107.599,182.423,113.251,175.5,113.251z"/>
</svg>
