<?xml version="1.0" encoding="utf-8"?>
<!-- Generator: Adobe Illustrator 16.0.0, SVG Export Plug-In . SVG Version: 6.00 Build 0)  -->
<!DOCTYPE svg PUBLIC "-//W3C//DTD SVG 1.1//EN" "http://www.w3.org/Graphics/SVG/1.1/DTD/svg11.dtd">
<svg version="1.1" id="Layer_1" xmlns="http://www.w3.org/2000/svg" xmlns:xlink="http://www.w3.org/1999/xlink" x="0px" y="0px"
	 width="200px" height="200px" viewBox="0 0 200 200" enable-background="new 0 0 200 200" xml:space="preserve">
<path fill="#231F20" d="M177.073,37.082v15.73c0,13.86-34.518,25.174-77.072,25.174c-42.547,0-77.073-11.313-77.073-25.174v-15.73
	c0-13.858,34.526-25.164,77.073-25.164C142.555,11.918,177.073,23.224,177.073,37.082z M177.073,72.473v35.395
	c0,13.855-34.518,25.163-77.072,25.163c-42.547,0-77.073-11.308-77.073-25.163V72.473C39.489,83.875,69.792,89.192,100,89.192
	C130.208,89.192,160.518,83.875,177.073,72.473z M177.073,127.524v35.401c0,13.849-34.518,25.155-77.072,25.155
	c-42.547,0-77.073-11.307-77.073-25.155v-35.401C39.489,138.927,69.792,144.24,100,144.24
	C130.208,144.24,160.518,138.927,177.073,127.524z"/>
</svg>
