<?xml version="1.0" encoding="utf-8"?>
<!-- Generator: Adobe Illustrator 16.0.0, SVG Export Plug-In . SVG Version: 6.00 Build 0)  -->
<!DOCTYPE svg PUBLIC "-//W3C//DTD SVG 1.1//EN" "http://www.w3.org/Graphics/SVG/1.1/DTD/svg11.dtd">
<svg version="1.1" id="Layer_1" xmlns="http://www.w3.org/2000/svg" xmlns:xlink="http://www.w3.org/1999/xlink" x="0px" y="0px"
	 width="200px" height="200px" viewBox="0 0 200 200" enable-background="new 0 0 200 200" xml:space="preserve">
<path fill="#231F20" d="M51.957,156.725c0,8.807,7.195,16.014,16.014,16.014h64.061c8.805,0,16.016-7.207,16.016-16.014V76.648
	c0-8.815-7.211-16.012-16.016-16.012H67.971c-8.818,0-16.014,7.196-16.014,16.012V156.725z M148.047,36.61h-20.02l-5.687-5.688
	c-1.446-1.443-3.526-2.318-5.606-2.318H83.266c-2.093,0-4.167,0.875-5.607,2.318l-5.684,5.688H51.957c-4.406,0-8.01,3.6-8.01,8.007
	c0,4.404,3.604,8.013,8.01,8.013h96.09c4.402,0,8.006-3.608,8.006-8.013C156.053,40.209,152.449,36.61,148.047,36.61z"/>
</svg>
