<?xml version="1.0" encoding="utf-8"?>
<!-- Generator: Adobe Illustrator 16.0.0, SVG Export Plug-In . SVG Version: 6.00 Build 0)  -->
<!DOCTYPE svg PUBLIC "-//W3C//DTD SVG 1.1//EN" "http://www.w3.org/Graphics/SVG/1.1/DTD/svg11.dtd">
<svg version="1.1" id="Layer_1" xmlns="http://www.w3.org/2000/svg" xmlns:xlink="http://www.w3.org/1999/xlink" x="0px" y="0px"
	 width="200px" height="200px" viewBox="0 0 200 200" enable-background="new 0 0 200 200" xml:space="preserve">
<path fill="#231F20" d="M71.257,180.398H42.534c-5.273,0-9.572-4.303-9.572-9.575v-67.025H16.681c-4.402,0-6.411-5.442-3.159-8.326
	l80.043-72.085c3.637-3.259,9.189-3.259,12.827,0l80.043,72.085c3.349,2.884,1.243,8.326-3.16,8.326h-16.279v67.025
	c0,5.271-4.311,9.575-9.573,9.575h-28.731c-5.254,0-9.57-4.303-9.57-9.575v-47.878H80.837v47.878
	C80.837,176.095,76.519,180.398,71.257,180.398z"/>
</svg>
