<?xml version="1.0" encoding="utf-8"?>
<!-- Generator: Adobe Illustrator 16.0.0, SVG Export Plug-In . SVG Version: 6.00 Build 0)  -->
<!DOCTYPE svg PUBLIC "-//W3C//DTD SVG 1.1//EN" "http://www.w3.org/Graphics/SVG/1.1/DTD/svg11.dtd">
<svg version="1.1" id="Layer_1" xmlns="http://www.w3.org/2000/svg" xmlns:xlink="http://www.w3.org/1999/xlink" x="0px" y="0px"
	 width="200px" height="200px" viewBox="0 0 200 200" enable-background="new 0 0 200 200" xml:space="preserve">
<path fill="#231F20" d="M100.013,188.752c9.929,0,18.068-8.129,18.068-18.064H81.946C81.946,180.624,89.983,188.752,100.013,188.752
	z M154.218,134.554v-45.18c0-27.713-14.824-50.932-40.656-57.079v-6.155c0-7.504-6.051-13.549-13.549-13.549
	c-7.501,0-13.555,6.045-13.555,13.549v6.155c-25.923,6.147-40.654,29.262-40.654,57.079v45.18l-11.654,11.654
	c-5.689,5.693-1.711,15.441,6.329,15.441h118.978c8.041,0,12.106-9.748,6.412-15.441L154.218,134.554z"/>
</svg>
