<?xml version="1.0" encoding="utf-8"?>
<!-- Generator: Adobe Illustrator 16.0.0, SVG Export Plug-In . SVG Version: 6.00 Build 0)  -->
<!DOCTYPE svg PUBLIC "-//W3C//DTD SVG 1.1//EN" "http://www.w3.org/Graphics/SVG/1.1/DTD/svg11.dtd">
<svg version="1.1" id="Layer_1" xmlns="http://www.w3.org/2000/svg" xmlns:xlink="http://www.w3.org/1999/xlink" x="0px" y="0px"
	 width="200px" height="200px" viewBox="0 0 200 200" enable-background="new 0 0 200 200" xml:space="preserve">
<path fill="#231F20" d="M136.032,40.623c0-19.908-16.132-36.038-36.033-36.038c-19.909,0-36.032,16.13-36.032,36.038
	c0,19.896,16.123,36.029,36.032,36.029C119.9,76.652,136.032,60.518,136.032,40.623z M91.586,95.08
	C69.315,81.444,33.25,77.696,15.094,76.667c-6.102-0.346-11.185,4.296-11.185,10.16v83.633c0,5.376,4.349,9.858,9.938,10.154
	c16.393,0.857,49.539,4.001,72.467,15.553c3.512,1.77,7.688-0.646,7.688-4.454V99.382C93.996,97.625,93.129,96.02,91.586,95.08
	L91.586,95.08z M184.902,76.667c-18.152,1.02-54.225,4.776-76.488,18.412c-1.54,0.94-2.41,2.612-2.41,4.363v92.256
	c0,3.822,4.186,6.238,7.713,4.469c22.913-11.531,56.045-14.688,72.438-15.548c5.588-0.284,9.937-4.77,9.937-10.159V86.828
	C196.091,80.963,190.999,76.322,184.902,76.667z"/>
</svg>
