<?xml version="1.0" encoding="utf-8"?>
<!-- Generator: Adobe Illustrator 16.0.0, SVG Export Plug-In . SVG Version: 6.00 Build 0)  -->
<!DOCTYPE svg PUBLIC "-//W3C//DTD SVG 1.1//EN" "http://www.w3.org/Graphics/SVG/1.1/DTD/svg11.dtd">
<svg version="1.1" id="Layer_1" xmlns="http://www.w3.org/2000/svg" xmlns:xlink="http://www.w3.org/1999/xlink" x="0px" y="0px"
	 width="200px" height="200px" viewBox="0 0 200 200" enable-background="new 0 0 200 200" xml:space="preserve">
<path fill="#231F20" d="M144.491,162.289L100,117.804l-44.494,44.484c-4.893,4.895-12.899,4.895-17.789,0
	c-4.891-4.881-4.894-12.907-0.001-17.802l44.49-44.477l-44.49-44.496c-4.893-4.895-4.9-12.886,0-17.801
	c4.891-4.896,12.897-4.896,17.79,0L100,82.208l44.491-44.495c4.892-4.879,12.906-4.879,17.794,0c4.895,4.899,4.893,12.906,0,17.801
	l-44.492,44.496l44.492,44.477c4.895,4.895,4.895,12.901,0,17.802C157.385,167.183,149.383,167.183,144.491,162.289z"/>
</svg>
