<?xml version="1.0" encoding="utf-8"?>
<!-- Generator: Adobe Illustrator 16.0.0, SVG Export Plug-In . SVG Version: 6.00 Build 0)  -->
<!DOCTYPE svg PUBLIC "-//W3C//DTD SVG 1.1//EN" "http://www.w3.org/Graphics/SVG/1.1/DTD/svg11.dtd">
<svg version="1.1" id="Layer_1" xmlns="http://www.w3.org/2000/svg" xmlns:xlink="http://www.w3.org/1999/xlink" x="0px" y="0px"
	 width="200px" height="200px" viewBox="0 0 200 200" enable-background="new 0 0 200 200" xml:space="preserve">
<path fill="#231F20" d="M144.761,32.667c-3.042-3.045-7.124-4.735-11.37-4.735H43.947c-8.884,0-16.016,7.212-16.016,16.016v112.109
	c0,8.803,7.21,16.013,16.016,16.013h112.105c8.803,0,16.016-7.21,16.016-16.013V66.607c0-4.235-1.681-8.315-4.723-11.289
	L144.761,32.667z M100,156.056c-13.295,0-24.021-10.716-24.021-24.024c0-13.284,10.727-24.021,24.021-24.021
	c13.288,0,24.023,10.736,24.023,24.021C124.023,145.34,113.288,156.056,100,156.056z M108.007,75.978H59.963
	c-8.807,0-16.016-7.205-16.016-16.013c0-8.804,7.209-16.019,16.016-16.019h48.044c8.804,0,16.017,7.215,16.017,16.019
	C124.023,68.773,116.811,75.978,108.007,75.978z"/>
</svg>
