<?xml version="1.0" encoding="utf-8"?>
<!-- Generator: Adobe Illustrator 16.0.0, SVG Export Plug-In . SVG Version: 6.00 Build 0)  -->
<!DOCTYPE svg PUBLIC "-//W3C//DTD SVG 1.1//EN" "http://www.w3.org/Graphics/SVG/1.1/DTD/svg11.dtd">
<svg version="1.1" id="Layer_1" xmlns="http://www.w3.org/2000/svg" xmlns:xlink="http://www.w3.org/1999/xlink" x="0px" y="0px"
	 width="200px" height="200px" viewBox="0 0 200 200" enable-background="new 0 0 200 200" xml:space="preserve">
<path fill="#231F20" d="M141.063,125.518h-8.166l-2.891-2.783c12.4-14.46,18.799-34.188,15.295-55.146
	c-4.865-28.728-28.818-51.642-57.736-55.145C43.875,7.061,7.123,43.833,12.49,87.512c3.516,28.921,26.436,52.874,55.145,57.736
	c20.965,3.511,40.693-2.9,55.152-15.299l2.785,2.906v8.16l43.891,43.889c4.238,4.237,11.152,4.237,15.389,0
	c4.24-4.238,4.24-11.154,0-15.383L141.063,125.518z M79.098,125.518c-25.715,0-46.465-20.762-46.465-46.465
	c0-25.715,20.75-46.474,46.465-46.474c25.719,0,46.475,20.759,46.475,46.474C125.572,104.756,104.816,125.518,79.098,125.518z"/>
</svg>
