<?xml version="1.0" encoding="utf-8"?>
<!-- Generator: Adobe Illustrator 16.0.0, SVG Export Plug-In . SVG Version: 6.00 Build 0)  -->
<!DOCTYPE svg PUBLIC "-//W3C//DTD SVG 1.1//EN" "http://www.w3.org/Graphics/SVG/1.1/DTD/svg11.dtd">
<svg version="1.1" id="Layer_1" xmlns="http://www.w3.org/2000/svg" xmlns:xlink="http://www.w3.org/1999/xlink" x="0px" y="0px"
	 width="200px" height="200px" viewBox="0 0 200 200" enable-background="new 0 0 200 200" xml:space="preserve">
<path fill="#231F20" d="M165.46,109.308c0.353-2.82,0.618-5.64,0.618-8.635c0-2.987-0.266-5.817-0.618-8.633l18.587-14.537
	c1.682-1.315,2.119-3.696,1.059-5.639l-17.611-30.458c-1.064-1.956-3.443-2.643-5.381-1.956l-21.926,8.816
	c-4.582-3.528-9.508-6.423-14.89-8.634l-3.348-23.344c-0.265-2.112-2.12-3.699-4.317-3.699H82.397c-2.199,0-4.049,1.587-4.315,3.699
	l-3.348,23.344c-5.364,2.211-10.309,5.199-14.887,8.634l-21.93-8.816c-2.033-0.791-4.316,0-5.372,1.956L14.929,71.863
	c-1.144,1.943-0.612,4.324,1.062,5.639l18.58,14.537c-0.343,2.816-0.617,5.723-0.617,8.633c0,2.907,0.274,5.815,0.617,8.635
	l-18.58,14.526c-1.674,1.316-2.126,3.699-1.062,5.64l17.617,30.48c1.056,1.939,3.432,2.625,5.372,1.939l21.93-8.813
	c4.578,3.529,9.522,6.437,14.887,8.628l3.348,23.348c0.267,2.128,2.116,3.699,4.315,3.699h35.235c2.197,0,4.053-1.571,4.317-3.699
	l3.348-23.348c5.382-2.192,10.308-5.195,14.89-8.628l21.926,8.813c2.033,0.792,4.316,0,5.381-1.939l17.611-30.48
	c1.061-1.941,0.623-4.324-1.059-5.64L165.46,109.308z M100.018,131.498c-17,0-30.828-13.834-30.828-30.826
	c0-17.001,13.828-30.835,30.828-30.835c16.992,0,30.824,13.834,30.824,30.835C130.842,117.664,117.01,131.498,100.018,131.498z"/>
</svg>
