<?xml version="1.0" encoding="utf-8"?>
<!-- Generator: Adobe Illustrator 16.0.0, SVG Export Plug-In . SVG Version: 6.00 Build 0)  -->
<!DOCTYPE svg PUBLIC "-//W3C//DTD SVG 1.1//EN" "http://www.w3.org/Graphics/SVG/1.1/DTD/svg11.dtd">
<svg version="1.1" id="Layer_1" xmlns="http://www.w3.org/2000/svg" xmlns:xlink="http://www.w3.org/1999/xlink" x="0px" y="0px"
	 width="200px" height="200px" viewBox="0 0 200 200" enable-background="new 0 0 200 200" xml:space="preserve">
<path fill="#231F20" d="M193.58,73.79l-48.045,45.368c-5.068,4.777-13.504,1.238-13.504-5.82V89.323
	c-48.231,0.336-68.58,11.717-54.974,57.175c1.492,4.998-4.286,8.861-8.353,5.781c-12.995-9.867-24.757-28.761-24.757-47.831
	c0-48.03,39.24-57.553,88.084-57.827V22.588c0-7.055,8.444-10.595,13.504-5.813l48.045,45.37
	C196.922,65.307,196.928,70.621,193.58,73.79z M132.031,141.083v22.972H25.259V57.3h17c1.082,0,2.127-0.457,2.877-1.24
	c4.99-5.199,10.763-9.306,17.017-12.574c3.721-1.94,2.347-7.553-1.846-7.553H19.924c-8.843,0-16.013,7.176-16.013,16.018v117.452
	c0,8.837,7.17,16.014,16.013,16.014h117.44c8.851,0,16.015-7.177,16.015-16.014v-29.639c0-2.768-2.731-4.69-5.341-3.769
	c-3.654,1.286-7.572,1.672-11.409,1.125C134.204,136.763,132.031,138.625,132.031,141.083L132.031,141.083z"/>
</svg>
