<?xml version="1.0" encoding="utf-8"?>
<!-- Generator: Adobe Illustrator 16.0.0, SVG Export Plug-In . SVG Version: 6.00 Build 0)  -->
<!DOCTYPE svg PUBLIC "-//W3C//DTD SVG 1.1//EN" "http://www.w3.org/Graphics/SVG/1.1/DTD/svg11.dtd">
<svg version="1.1" id="Layer_1" xmlns="http://www.w3.org/2000/svg" xmlns:xlink="http://www.w3.org/1999/xlink" x="0px" y="0px"
	 width="200px" height="200px" viewBox="0 0 200 200" enable-background="new 0 0 200 200" xml:space="preserve">
<path fill="#231F20" d="M132.031,92.665c13.293,0,23.945-10.735,23.945-24.026c0-13.281-10.652-24.021-23.945-24.021
	c-13.295,0-24.023,10.74-24.023,24.021C108.008,81.929,118.736,92.665,132.031,92.665z M67.969,92.665
	c13.295,0,23.946-10.735,23.946-24.026c0-13.281-10.651-24.021-23.946-24.021c-13.292,0-24.022,10.74-24.022,24.021
	C43.946,81.929,54.677,92.665,67.969,92.665z M67.969,108.681c-18.657,0-56.051,9.366-56.051,28.024v12.014
	c0,4.4,3.611,8.006,8.006,8.006h96.091c4.409,0,8.01-3.605,8.01-8.006v-12.014C124.024,118.046,86.63,108.681,67.969,108.681z
	 M132.031,108.681c-2.316,0-4.96,0.16-7.76,0.397c0.159,0.086,0.236,0.244,0.314,0.321c9.134,6.645,15.45,15.526,15.45,27.305
	v12.014c0,2.8-0.561,5.53-1.438,8.006h41.478c4.408,0,8.006-3.605,8.006-8.006v-12.014
	C188.082,118.046,150.688,108.681,132.031,108.681z"/>
</svg>
