<?xml version="1.0" encoding="utf-8"?>
<!-- Generator: Adobe Illustrator 16.0.0, SVG Export Plug-In . SVG Version: 6.00 Build 0)  -->
<!DOCTYPE svg PUBLIC "-//W3C//DTD SVG 1.1//EN" "http://www.w3.org/Graphics/SVG/1.1/DTD/svg11.dtd">
<svg version="1.1" id="Layer_1" xmlns="http://www.w3.org/2000/svg" xmlns:xlink="http://www.w3.org/1999/xlink" x="0px" y="0px"
	 width="200px" height="200px" viewBox="0 0 200 200" enable-background="new 0 0 200 200" xml:space="preserve">
<path fill="#231F20" d="M100,44.871c-36.752,0-68.136,22.85-80.856,55.128C31.864,132.261,63.248,155.13,100,155.13
	c36.753,0,68.136-22.869,80.856-55.131C168.136,67.721,136.753,44.871,100,44.871z M100,136.753
	c-20.271,0-36.752-16.473-36.752-36.754c0-20.306,16.481-36.751,36.752-36.751c20.3,0,36.753,16.445,36.753,36.751
	C136.753,120.28,120.3,136.753,100,136.753z M100,77.951c-12.189,0-22.052,9.839-22.052,22.048c0,12.197,9.862,22.052,22.052,22.052
	c12.218,0,22.052-9.854,22.052-22.052C122.052,87.79,112.218,77.951,100,77.951z"/>
</svg>
