<?xml version="1.0" encoding="utf-8"?>
<!-- Generator: Adobe Illustrator 16.0.0, SVG Export Plug-In . SVG Version: 6.00 Build 0)  -->
<!DOCTYPE svg PUBLIC "-//W3C//DTD SVG 1.1//EN" "http://www.w3.org/Graphics/SVG/1.1/DTD/svg11.dtd">
<svg version="1.1" id="Layer_1" xmlns="http://www.w3.org/2000/svg" xmlns:xlink="http://www.w3.org/1999/xlink" x="0px" y="0px"
	 width="200px" height="200px" viewBox="0 0 200 200" enable-background="new 0 0 200 200" xml:space="preserve">
<path fill="#231F20" d="M100.036,59.572c20.285,0,36.752,16.453,36.752,36.751c0,4.783-0.962,9.262-2.641,13.454l21.463,21.477
	c11.096-9.274,19.841-21.261,25.21-34.931c-12.722-32.258-44.104-55.127-80.855-55.127c-10.296,0-20.144,1.851-29.26,5.146
	l15.879,15.887C90.775,60.536,95.254,59.572,100.036,59.572z M26.531,39.517l16.754,16.744l3.389,3.39
	C34.47,69.134,24.907,81.775,19.18,96.323c12.706,32.275,44.104,55.132,80.856,55.132c11.384,0,22.267-2.204,32.185-6.175
	l3.089,3.102l21.549,21.447l9.332-9.325L35.862,30.172L26.531,39.517z M67.174,80.161l11.399,11.397
	c-0.374,1.534-0.59,3.15-0.59,4.765c0,12.206,9.849,22.052,22.053,22.052c1.605,0,3.228-0.209,4.779-0.589l11.384,11.408
	c-4.922,2.419-10.363,3.883-16.163,3.883c-20.288,0-36.752-16.465-36.752-36.754C63.284,90.531,64.748,85.077,67.174,80.161z
	 M98.858,74.424l23.158,23.147l0.142-1.168c0-12.193-9.849-22.052-22.052-22.052L98.858,74.424z"/>
</svg>
